HIERARCHY
ROOT Hips
{
	OFFSET -3.958830 18.904000 13.208200
	CHANNELS 6 Xposition Yposition Zposition Zrotation Yrotation Xrotation 
	JOINT LHipJoint
	{
		OFFSET 0.000000 0.000000 0.000000
		CHANNELS 3 Zrotation Yrotation Xrotation
		JOINT LeftUpLeg
		{
			OFFSET 1.800000 -1.400000 0.085000
			CHANNELS 3 Zrotation Yrotation Xrotation
			JOINT LeftLeg
			{
				OFFSET 2.215000 -6.000000 0.000000
				CHANNELS 3 Zrotation Yrotation Xrotation
				JOINT LeftFoot
				{
					OFFSET 2.500000 -6.900000 0.000000
					CHANNELS 3 Zrotation Yrotation Xrotation
					JOINT LeftToeBase
					{
						OFFSET 0.200000 -0.500000 1.950000
						CHANNELS 3 Zrotation Yrotation Xrotation
						End Site
						{
							OFFSET 0.000000 0.000000 0.000000
						}
					}
				}
			}
		}
	}
	JOINT RHipJoint
	{
		OFFSET 0.000000 0.000000 0.000000
		CHANNELS 3 Zrotation Yrotation Xrotation
		JOINT RightUpLeg
		{
			OFFSET -1.800000 -1.400000 0.085000
			CHANNELS 3 Zrotation Yrotation Xrotation
			JOINT RightLeg
			{
				OFFSET -2.215000 -6.000000 0.000000
				CHANNELS 3 Zrotation Yrotation Xrotation
				JOINT RightFoot
				{
					OFFSET -2.500000 -6.900000 0.000000
					CHANNELS 3 Zrotation Yrotation Xrotation
					JOINT RightToeBase
					{
						OFFSET -0.200000 -0.500000 1.950000
						CHANNELS 3 Zrotation Yrotation Xrotation
						End Site
						{
							OFFSET 0.000000 0.000000 0.000000
						}
					}
				}
			}
		}
	}
	JOINT LowerBack
	{
		OFFSET 0.000000 0.000000 0.000000
		CHANNELS 3 Zrotation Yrotation Xrotation
		JOINT Spine
		{
			OFFSET -0.087000 1.940000 -0.288900
			CHANNELS 3 Zrotation Yrotation Xrotation
			JOINT Spine1
			{
				OFFSET 0.000000 1.950000 0.060000
				CHANNELS 3 Zrotation Yrotation Xrotation
				JOINT Neck
				{
					OFFSET 0.000000 0.000000 0.000000
					CHANNELS 3 Zrotation Yrotation Xrotation
					JOINT Neck1
					{
						OFFSET 0.000000 1.600000 0.340000
						CHANNELS 3 Zrotation Yrotation Xrotation
						JOINT Head
						{
							OFFSET 0.000000 1.667000 -0.240000
							CHANNELS 3 Zrotation Yrotation Xrotation
							End Site
							{
								OFFSET 0.000000 0.000000 0.000000
							}
						}
					}
				}
				JOINT LeftShoulder
				{
					OFFSET 0.000000 0.000000 0.000000
					CHANNELS 3 Zrotation Yrotation Xrotation
					JOINT LeftArm
					{
						OFFSET 2.700000 1.550000 -0.730000
						CHANNELS 3 Zrotation Yrotation Xrotation
						JOINT LeftForeArm
						{
							OFFSET 5.450000 0.000000 0.000000
							CHANNELS 3 Zrotation Yrotation Xrotation
							JOINT LeftHand
							{
								OFFSET 3.450000 0.000000 0.000000
								CHANNELS 3 Zrotation Yrotation Xrotation
								JOINT LeftHandIndex1
								{
									OFFSET 0.750000 0.000000 0.000000
									CHANNELS 3 Zrotation Yrotation Xrotation
									End Site
									{
										OFFSET 0.000000 0.000000 0.000000
									}
								}
							}
						}
					}
				}
				JOINT RightShoulder
				{
					OFFSET 0.000000 0.000000 0.000000
					CHANNELS 3 Zrotation Yrotation Xrotation
					JOINT RightArm
					{
						OFFSET -2.700000 1.550000 -0.730000
						CHANNELS 3 Zrotation Yrotation Xrotation
						JOINT RightForeArm
						{
							OFFSET -5.450000 0.000000 0.000000
							CHANNELS 3 Zrotation Yrotation Xrotation
							JOINT RightHand
							{
								OFFSET -3.450000 0.000000 0.000000
								CHANNELS 3 Zrotation Yrotation Xrotation
								JOINT RightHandIndex1
								{
									OFFSET -0.750000 0.000000 0.000000
									CHANNELS 3 Zrotation Yrotation Xrotation
									End Site
									{
										OFFSET 0.000000 0.000000 0.000000
									}
								}
							}
						}
					}
				}
			}
		}
	}
}
MOTION
Frames: 10
Frame Time: 0.016667
-0.770300 17.707870 -4.633350 -2.260549 -21.529393 -17.511969 -14.792662 12.249171 2.861711 5.855840 -0.894517 2.434275 -3.439477 3.868325 0.241749 -0.038207 4.052373 3.334460 0.244200 0.294930 0.005270 18.659519 -11.724037 3.250439 -6.644112 -4.205333 12.340179 8.272200 -6.521267 6.162313 -0.682731 -5.915186 2.447836 0.361690 0.307730 0.044960 -4.738435 1.073681 -7.253050 16.277091 -0.702112 23.121981 -13.068337 10.429857 25.218343 11.139222 -10.498012 -12.144656 -16.371724 1.081741 22.769833 -2.719200 -1.306100 -4.911920 -4.067425 -23.724875 9.479492 -15.349790 -35.063499 8.625936 140.531635 -34.800398 -88.541266 -4.200658 2.888173 -0.160980 0.257880 -0.228960 0.144530 -16.599287 30.371153 6.173655 -47.295335 -7.613918 -14.170124 -96.197583 -29.548064 24.049508 3.632274 -1.951201 -0.095650 0.212740 0.006660 0.037610 
-0.774520 17.712030 -4.631770 -1.959886 -20.846796 -17.500560 -14.742874 12.188125 2.835193 5.458927 -0.898242 2.061038 -3.614396 3.874857 0.643059 -0.050078 3.976371 3.350849 0.251360 0.300070 0.010880 18.710685 -11.793308 3.255407 -6.997396 -4.103753 12.146016 8.409921 -6.540867 6.101663 -0.691800 -5.913214 2.446168 0.356880 0.288510 0.039550 -4.891292 1.282880 -7.240178 17.109534 -0.510914 22.706180 -13.491647 10.658355 24.896222 10.575269 -10.333273 -11.928312 -16.519348 0.686183 23.954225 -2.325390 -2.016320 -5.035420 -3.063001 -22.736866 8.884963 -13.143065 -35.135848 7.728715 137.701427 -36.526564 -86.274259 -4.178204 2.847112 -0.146560 0.235210 -0.214330 0.143520 -16.736369 29.234751 6.030097 -46.438812 -7.485846 -13.611765 -93.235025 -27.262075 21.058920 3.620112 -1.948519 -0.088100 0.210800 0.000730 0.038800 
-0.776110 17.706080 -4.628140 -1.652586 -19.637533 -17.393244 -14.681690 12.124712 2.783354 4.919356 -0.885115 1.330309 -3.793217 3.893239 1.343497 -0.086672 3.877642 3.370931 0.255260 0.297410 0.016270 18.778790 -11.862722 3.259314 -7.295920 -3.960651 11.932145 8.441458 -6.541281 6.038101 -0.698646 -5.911984 2.441933 0.352160 0.271750 0.038250 -5.078248 1.494996 -7.216455 18.415160 -0.229495 21.778684 -14.060624 10.800605 24.435455 9.770294 -9.965335 -11.590264 -16.667874 0.135674 25.905029 -2.126770 -2.965840 -4.953950 -1.025908 -20.771887 7.844072 -9.115770 -35.172523 5.952937 131.438118 -39.638513 -81.104172 -4.153410 2.758749 -0.128050 0.216990 -0.201200 0.138880 -17.558058 26.974021 5.876600 -44.598493 -7.269600 -12.630801 -86.008844 -24.201477 16.117654 3.612099 -1.954444 -0.085050 0.210850 0.002080 0.036380 
-0.777190 17.694800 -4.626830 -1.396835 -18.434218 -17.126134 -14.635908 12.082622 2.694932 4.469111 -0.885673 0.259312 -3.894535 3.937561 2.548068 -0.143389 3.768466 3.390430 0.269880 0.309190 0.033130 18.836635 -11.897861 3.280619 -7.470862 -3.753436 11.712844 8.408208 -6.430638 5.526780 -0.702385 -5.896942 2.441512 0.362280 0.255200 0.035620 -5.226455 1.638332 -7.181409 19.658146 0.316619 20.419058 -14.111172 10.865988 24.047371 8.688975 -9.333460 -11.077781 -16.411137 -0.374984 28.126326 -2.090020 -3.794560 -4.983770 1.357243 -18.574979 6.721957 -3.464274 -34.867887 4.121581 124.533388 -43.055382 -75.607410 -4.108117 2.656744 -0.115130 0.205250 -0.190870 0.132570 -18.196659 24.586412 5.549867 -42.603098 -5.545313 -11.912940 -78.019262 -17.485364 9.308451 3.504426 -1.991328 -0.084060 0.215680 0.000220 0.030070 
-0.777570 17.676660 -4.617360 -1.240516 -17.387855 -16.762980 -14.603895 12.086591 2.622499 4.266924 -0.873806 -0.832058 -4.112672 4.033143 3.745068 -0.175594 3.688127 3.403391 0.283880 0.320760 0.049600 18.873823 -11.904139 3.293142 -7.618879 -3.523475 11.423490 8.431235 -6.354065 5.284514 -0.701725 -5.874720 2.446046 0.366890 0.238900 0.035130 -5.314377 1.643324 -7.164500 20.536108 0.613832 19.114841 -14.095440 10.434814 23.290760 7.438653 -8.604940 -10.607584 -15.970746 -0.541536 30.384207 -2.031450 -4.244740 -4.712420 3.620593 -16.362536 5.799329 3.115591 -33.098436 2.209914 119.171500 -44.900579 -69.992696 -4.046123 2.596431 -0.110570 0.196100 -0.181430 0.130450 -18.299935 22.215422 5.092468 -40.495536 -3.476680 -10.974164 -71.316234 -6.502199 1.830152 3.317105 -2.045916 -0.076770 0.210810 -0.008650 0.026760 
-0.780980 17.661530 -4.608840 -1.083231 -16.732739 -16.748400 -14.607588 12.129799 2.576391 4.225960 -0.834544 -1.720523 -4.386582 4.160819 4.802269 -0.210034 3.654021 3.394086 0.314130 0.356670 0.079830 18.872458 -11.865636 3.306958 -7.590323 -3.352662 11.589309 8.379102 -6.316375 5.192579 -0.717454 -5.878465 2.436031 0.389250 0.215830 0.039520 -5.294512 1.511063 -7.157972 20.532885 0.916036 18.232624 -13.185218 9.783146 22.800090 6.160171 -7.798896 -10.007076 -15.128072 -0.216852 32.363064 -2.148150 -3.888640 -5.013860 5.723079 -14.356875 4.868908 9.357741 -30.730401 1.031958 117.176721 -45.897019 -67.395009 -3.994093 2.583059 -0.099920 0.189360 -0.162210 0.128100 -18.046088 20.060034 4.446488 -38.632203 -0.269131 -10.092123 -68.191018 5.793240 -4.633522 3.074646 -2.079201 -0.069570 0.207840 -0.022030 0.016400 
-0.790340 17.642500 -4.598860 -0.718998 -16.198577 -16.504380 -14.623588 12.210792 2.550095 3.843658 -0.749500 -2.868609 -4.367924 4.236645 5.804314 -0.258241 3.598703 3.395929 0.327950 0.374690 0.099970 18.854214 -11.799772 3.318574 -7.606880 -3.102577 11.509270 8.512722 -6.291118 5.115254 -0.713493 -5.869137 2.435924 0.408050 0.212180 0.042580 -5.226591 1.283248 -7.155334 19.837463 1.189067 17.241536 -12.566027 8.759525 21.838216 4.883958 -6.825538 -9.411530 -13.830119 0.811121 34.145840 -2.208020 -2.676840 -4.848380 7.670601 -12.676630 3.831945 15.391154 -27.995613 -0.401057 112.697892 -45.317172 -60.142957 -3.956035 2.589815 -0.094950 0.201690 -0.158360 0.123220 -17.637150 17.949425 3.866512 -36.256537 3.347709 -8.828096 -69.173912 19.028238 -11.476064 2.815316 -2.075320 -0.076620 0.208520 -0.024920 0.001130 
-0.797130 17.627870 -4.585690 -0.568797 -15.522232 -16.410606 -14.639066 12.264326 2.528275 3.476752 -0.628880 -3.733350 -4.264110 4.287742 6.497909 -0.283954 3.549788 3.400682 0.334090 0.383340 0.109250 18.840976 -11.736917 3.343319 -7.458876 -2.961835 11.792712 8.783954 -6.310403 4.956592 -0.720709 -5.895786 2.424469 0.416950 0.212130 0.045360 -5.169653 1.123491 -7.154205 19.290362 1.661272 16.321232 -11.365035 7.779839 21.240422 3.722467 -5.887254 -8.922470 -12.473406 1.560261 35.996518 -1.931210 -1.831130 -4.437610 9.728209 -11.362495 2.963935 19.397290 -25.662568 -0.971031 108.088002 -45.450420 -54.448717 -3.911986 2.614714 -0.095220 0.210160 -0.157010 0.121620 -17.404026 16.234383 3.589099 -33.348382 6.672416 -7.401708 -73.971890 31.383557 -19.656990 2.566894 -1.987691 -0.079340 0.204660 -0.027680 -0.006080 
-0.802140 17.616940 -4.576670 -0.515753 -14.524201 -16.526748 -14.635081 12.273013 2.491529 3.029414 -0.483979 -4.390969 -4.143547 4.381276 7.447784 -0.286090 3.510091 3.412373 0.337370 0.391100 0.117090 18.846224 -11.707438 3.413227 -7.309565 -2.878099 12.375540 9.414960 -6.348219 4.293356 -0.749735 -5.967250 2.402874 0.417030 0.216030 0.052600 -5.167895 1.120190 -7.179508 18.940679 2.056225 15.983245 -10.311866 6.810093 20.603820 2.782340 -5.039878 -8.499316 -10.847726 1.910521 37.139411 -1.869850 -1.064940 -4.122790 11.001375 -10.478246 2.094506 24.004818 -22.128314 -1.242140 105.493837 -45.681034 -50.894808 -3.882747 2.657104 -0.100700 0.219270 -0.150170 0.128100 -16.701153 15.105647 3.649081 -30.855100 9.606030 -6.171555 -81.282828 40.989669 -29.090407 2.346853 -1.793126 -0.075070 0.201310 -0.037630 -0.004660 
-0.805140 17.605790 -4.564640 -0.455554 -13.456229 -16.551148 -14.613622 12.245670 2.439512 2.405120 -0.324971 -5.164641 -4.085618 4.563857 8.884599 -0.282577 3.488702 3.420968 0.318040 0.376290 0.105810 18.869196 -11.699780 3.517085 -7.191315 -2.781887 12.922836 10.433056 -6.367180 3.130631 -0.769724 -6.060517 2.382468 0.406810 0.233300 0.051930 -5.220493 1.234461 -7.215058 18.708880 2.548412 15.862943 -9.210646 5.913661 20.012262 1.729266 -4.244158 -8.226689 -9.088349 2.098541 37.777965 -1.865060 -0.328510 -3.361600 12.233849 -9.595255 1.116016 28.691518 -17.698796 -1.219240 101.872900 -45.689549 -46.313888 -3.875196 2.721900 -0.118460 0.238920 -0.160930 0.130680 -15.684122 14.173772 4.214047 -27.875350 12.877609 -5.187829 -91.445759 45.648372 -39.451448 2.198932 -1.571268 -0.079020 0.199010 -0.037060 -0.001200 
